<?xml version="1.0" standalone="no"?>
<!DOCTYPE svg PUBLIC "-//W3C//DTD SVG 20010904//EN"
 "http://www.w3.org/TR/2001/REC-SVG-20010904/DTD/svg10.dtd">
<svg version="1.0" xmlns="http://www.w3.org/2000/svg"
 width="3512.000000pt" height="3512.000000pt" viewBox="0 0 3512.000000 3512.000000"
 preserveAspectRatio="xMidYMid meet">
<metadata>
Created by potrace 1.11, written by Peter Selinger 2001-2013
</metadata>
<g transform="translate(0.000000,3512.000000) scale(0.100000,-0.100000)"
fill="#000000" stroke="none">
<path d="M7429 25016 c-2 -2 -56 -7 -119 -10 -63 -3 -135 -8 -160 -10 -25 -3
-83 -8 -130 -11 -47 -4 -87 -8 -90 -10 -3 -2 -34 -6 -70 -10 -57 -6 -292 -39
-345 -49 -11 -2 -54 -9 -95 -16 -256 -41 -750 -169 -1060 -274 -386 -131 -874
-346 -1178 -520 -35 -20 -66 -36 -68 -36 -23 0 -637 -393 -725 -464 -15 -11
-39 -30 -55 -41 -49 -35 -257 -196 -299 -232 -22 -19 -47 -39 -55 -46 -129
-105 -352 -310 -513 -472 -60 -60 -148 -153 -196 -205 -47 -52 -94 -104 -105
-115 -58 -64 -265 -317 -339 -415 -48 -63 -91 -119 -95 -125 -4 -5 -36 -50
-71 -100 -399 -571 -697 -1146 -929 -1790 -47 -130 -137 -410 -148 -460 -1 -5
-13 -50 -27 -100 -14 -49 -29 -106 -33 -125 -10 -43 -8 -37 -22 -85 -6 -22
-13 -56 -16 -75 -3 -19 -10 -50 -15 -68 -5 -18 -10 -35 -10 -37 0 -3 -5 -29
-10 -58 -22 -104 -28 -138 -47 -252 -2 -16 -9 -55 -14 -85 -5 -30 -12 -75 -15
-100 -3 -25 -8 -56 -10 -70 -2 -14 -7 -54 -10 -90 -4 -36 -9 -73 -11 -83 -1
-9 -6 -52 -9 -95 -4 -42 -8 -93 -10 -112 -27 -257 -27 -921 0 -1240 8 -99 16
-177 20 -205 6 -39 15 -118 21 -175 2 -25 6 -52 9 -60 2 -8 7 -37 11 -65 3
-27 8 -59 10 -70 2 -11 7 -40 10 -65 3 -25 17 -99 31 -165 14 -66 27 -131 29
-145 38 -204 244 -921 275 -954 5 -6 9 -18 9 -28 0 -10 4 -26 9 -36 6 -9 35
-82 66 -162 31 -80 70 -173 86 -208 16 -35 29 -65 29 -67 0 -6 77 -169 135
-285 199 -402 429 -777 699 -1140 353 -476 800 -946 1241 -1305 61 -49 112
-92 115 -95 5 -6 299 -225 336 -251 77 -53 326 -219 329 -219 1 0 45 -26 97
-59 130 -82 343 -199 538 -296 160 -80 384 -185 395 -185 3 0 27 -9 53 -21 26
-12 56 -25 67 -30 211 -93 856 -303 1035 -335 14 -3 50 -11 80 -19 30 -8 66
-16 80 -19 14 -3 70 -14 125 -26 101 -21 356 -65 430 -75 22 -3 54 -7 70 -9
17 -2 55 -7 85 -10 30 -4 66 -9 80 -11 14 -2 63 -7 110 -11 47 -3 93 -8 102
-9 133 -26 1098 -26 1237 0 9 1 52 6 96 9 277 24 832 115 1003 165 18 5 35 10
37 10 47 5 400 106 595 170 181 60 490 176 575 216 49 22 130 58 135 60 25 6
423 205 510 254 30 17 71 39 90 49 19 9 40 20 45 25 6 4 64 39 130 79 66 39
179 110 250 157 72 47 134 88 139 90 5 2 16 10 25 17 9 7 77 57 151 110 74 54
137 100 140 103 3 4 61 51 130 105 332 264 695 615 975 941 33 39 62 72 65 75
3 3 24 28 45 55 22 28 42 52 45 55 3 3 30 36 60 75 30 38 60 77 67 85 51 63
185 251 271 380 122 182 190 292 288 465 89 156 110 197 174 325 34 69 74 149
88 177 l27 53 10148 0 10147 0 0 3360 0 3360 -8105 0 c-7453 0 -8105 1 -8105
16 0 32 111 831 136 978 30 181 82 433 135 660 21 93 39 170 39 172 0 1 -34
23 -76 48 l-75 46 -47 -41 c-117 -103 -293 -185 -457 -214 -120 -21 -399 -51
-690 -75 -593 -49 -836 -90 -1154 -196 -423 -141 -755 -364 -971 -652 -144
-193 -249 -436 -283 -657 l-13 -80 -430 -3 -429 -2 -34 62 c-127 232 -344 566
-529 813 -90 120 -205 268 -222 285 -3 3 -27 32 -55 65 -27 33 -54 65 -60 71
-5 6 -32 37 -60 69 -183 214 -489 511 -790 770 -203 174 -629 484 -838 611
-27 16 -61 37 -75 46 -15 9 -38 23 -52 31 -14 8 -86 49 -160 92 -141 82 -530
280 -616 313 -27 11 -76 32 -109 47 -272 125 -832 314 -1155 390 -20 4 -90 21
-170 39 -36 8 -81 18 -100 21 -19 3 -53 10 -75 15 -55 12 -388 67 -450 74 -27
3 -59 8 -70 10 -11 2 -56 7 -100 11 -44 4 -87 9 -95 10 -8 1 -60 5 -115 9 -55
5 -116 10 -135 13 -41 5 -806 13 -811 9z m10314 -2813 c-138 -161 -546 -690
-752 -975 l-63 -88 -523 0 -522 0 -14 48 c-63 218 105 552 366 729 244 165
496 229 1220 307 127 14 244 27 260 29 82 11 81 12 28 -50z m31 -922 l-27
-141 -79 0 c-63 0 -77 3 -71 13 20 34 198 275 201 272 2 -1 -9 -66 -24 -144z"/>
</g>
</svg>
